<?xml version="1.0" encoding="UTF-8" standalone="no"?>
<svg
   xmlns="http://www.w3.org/2000/svg"
   id="miles-arts-favicon-logo"
   style="background-color: transparent"
   version="1.1"
   viewBox="-10 -2 40 40">
  <circle
     r="20"
     cy="18.085733"
     cx="10.022919"
     id="path840"
     style="fill:#ffffff;stroke-width:1.23066;fill-opacity:1" />
  <g
     transform="matrix(0.93715774,0,0,0.93715774,0.59545058,-0.15958776)"
     id="g7"
     fill-rule="evenodd"
     fill="none"
     stroke="none">
    <g
       fill-rule="nonzero"
       id="icon-miles-arts-smaller">
      <path
         fill="#000000"
         id="head"
         d="m 7,0 c 1,2 5,2 6,0 l -3,11 z" />
      <polygon
         points="4,23 4,11 7,19 13,19 16,11 16,23 20,23 20,6 13,6 10,16 7,6 0,6 0,23 "
         fill="#c80000"
         id="torso" />
      <circle
         r="2"
         cy="32"
         cx="10"
         fill="#c80000"
         id="ball" />
      <polygon
         points="5,36 10,23 15,36 20,36 13,19 7,19 0,36 "
         fill="#000000"
         id="legs" />
    </g>
  </g>
</svg>
